PathFileType	4	(X/Y/Z)	/home/abdul/Desktop/myosuite/custom_workspace/IK/output/S14_12_1.trc
DataRate	CameraRate	NumFrames	NumMarkers	Units	OrigDataRate	OrigDataStartFrame	OrigNumFrames
200.0	200.0	39	3	mm	200.0	511	2040
Frame#	Time	V_Shoulder			V_Elbow			V_Wrist		
		X1	Y1	Z1	X2	Y2	Z2	X3	Y3	Z3

511	2.55	-132.3865662403125	648.3611052287498	319.8695556366963	-157.30729494579236	451.92746620493665	34.30616202352436	-62.507876147987886	216.34190630308387	32.37869143089871
512	2.555	-132.39942941190995	648.2460966020766	319.8533088412975	-157.3187449199107	451.8586525770464	34.26916427438004	-62.50485929530332	216.28102944729665	32.324876193463986
513	2.56	-132.41135282345886	648.1295311069629	319.83769777486515	-157.32741847403392	451.7859780547927	34.235038661229346	-62.49731502250488	216.21636658261679	32.27119542944541
514	2.565	-132.42234193594064	648.0114366555805	319.8227168500684	-157.33337771782203	451.70952906855894	34.20371754221552	-62.4853675161762	216.14796782911677	32.21769010072456
515	2.57	-132.43240294339864	647.891842476774	319.80835981695986	-157.3366889633552	451.6293986584484	34.175127006397986	-62.469148257530286	216.07589153751366	32.16439589317943
516	2.575	-132.441542762333	647.7707790906003	319.7946197884764	-157.33742248863308	451.5456862143351	34.14918712108429	-62.44879546958947	216.00020412905045	32.111343172199646
517	2.58	-132.44976902004797	647.6482782820077	319.78148926736617	-157.33565229223632	451.45849719865663	34.12581219781635	-62.42445354991267	215.9209799079288	32.058556967631304
518	2.585	-132.457090041955	647.524373073683	319.768960174481	-157.33145584010185	451.3679428528389	34.10491107618607	-62.39627249158805	215.8383008468806	32.00605698793977
519	2.59	-132.4635148378353	647.3990976980989	319.7570238783682	-157.32491380538596	451.2741398883	34.08638742459316	-62.364407295211336	215.7522563465898	31.953857663213686
520	2.595	-132.4690530870688	647.2724875687954	319.74567122609307	-157.3161098024034	451.1772101630397	34.07014005699956	-62.329017374557054	215.66294296979618	31.901968216471715
521	2.6	-132.47371512283874	647.1445792509259	319.7348925752199	-157.30513011564224	451.07728034487025	34.05606326467889	-62.29026595862159	215.57046415103073	31.85039276257708
522	2.605	-132.4775119153218	647.0154104310967	319.7246778268763	-157.29206342486162	450.97448156239426	34.04404716190746	-62.24831949267475	215.4749298830455	31.799130433912943
523	2.61	-132.4804550538772	646.8850198865339	319.7150164598233	-157.2770005272809	450.8689490448768	34.033978044494646	-62.20334704090011	215.37645638110982	31.74817553182683
524	2.615	-132.4825567282493	646.753447453606	319.70589756545013	-157.26003405786764	450.76082175220085	34.02573876000603	-62.15551969313508	215.27516572644805	31.697517702714332
525	2.62	-132.4838297088011	646.6207339957309	319.6973098836104	-157.2412582087248	450.6502419961282	34.019209088491856	-62.10500997814009	215.17118549019156	31.647142137482252
526	2.625	-132.48428732579762	646.4869213706999	319.6892418392157	-157.22076844856738	450.5373550541176	34.014266132497326	-62.051991285733166	215.06464833930968	31.597029793010243
527	2.63	-132.48394344776042	646.3520523974424	319.68168157949725	-157.1986612432643	450.4223087769791	34.01078471509881	-61.99663730002304	214.95569162606785	31.5471576341181
528	2.635	-132.4828124589167	646.2161708222635	319.67461701184783	-157.1750337784016	450.30525319166134	34.008637784682705	-61.939121445860295	214.84445696263867	31.497498894444163
529	2.64	-132.4809092357689	646.0793212845816	319.6680358421518	-157.14998368480306	450.18634010048424	34.0076968251607	-61.87961635050488	214.7310897825604	31.448023354549072
530	2.645	-132.47824912281177	645.94154928219	319.66192561351147	-157.12360876791593	450.0657226781405	34.007832270296994	-61.818293322379205	214.61573889079833	31.398697635478943
531	2.65	-132.47484790742678	645.8029011360724	319.6562737452754	-157.09600674194218	449.94355506779107	34.008913920809164	-61.75532184864054	214.49855600421682	31.349485505953382
532	2.655	-132.4707217939863	645.6634239547966	319.6510675722748	-157.06727496956162	449.8199919775836	34.01081136289604	-61.690869113165576	214.37969528431265	31.300348201286965
533	2.66	-132.46588737720018	645.523165598512	319.6462943841713	-157.03751020805893	449.69518827891136	34.01339438684198	-61.625099536394885	214.25931286409522	31.25124475210776
534	2.665	-132.4603616147413	645.3821746425739	319.6419414648201	-157.00680836262814	449.5692986077254	34.01653340434755	-61.55817433833667	214.13756637102318	31.20213232090404
535	2.67	-132.45416179918746	645.240500340822	319.6379961315523	-156.97526424758686	449.4424769701904	34.02009986324314	-61.4902511258785	214.01461444792267	31.152966544409786
536	2.675	-132.44730552931927	645.0981925885327	319.6344457742793	-156.94297135618996	449.31487635395945	34.02396665825197	-61.421483505404254	213.89061627381858	31.103701879831682
537	2.68	-132.4398106808155	644.9553018850697	319.63127789432224	-156.9100216396872	449.1866483463121	34.028008536485	-61.352020721561516	213.7657310866047	31.054291952924324
538	2.685	-132.43169537638863	644.8118792962556	319.62848014287084	-156.87650529622232	449.0579427603732	34.03210249636989	-61.28200732287376	213.6401177094669	31.00468990593658
539	2.69	-132.42297795540676	644.6679764164847	319.62604035897556	-156.84251057012284	448.9289072705916	34.036128178741485	-61.21158285474227	213.5139340829486	30.95484874348002
540	2.695	-132.41367694304753	644.5236453305996	319.6239466069776	-156.808123562079	448.79968705861927	34.03996824884997	-61.14088158023628	213.38733680451594	30.904721674410027
541	2.7	-132.40381101903247	644.3789385755508	319.6221872132845	-156.77342805066098	448.6704244706875	34.04350876807715	-61.07003222892656	213.2604806774392	30.854262447860478
542	2.705	-132.39339898599198	644.2339091018617	319.6207508023968	-156.73850532557043	448.54125868752726	34.04663955418877	-60.999157773878515	213.13351827075377	30.80342568163465
543	2.71	-132.38245973751205	644.0886102349156	319.6196263320964	-156.7034340329709	448.41232540783005	34.049254528993195	-60.92837523678722	213.00659949200735	30.75216718122591
544	2.715	-132.3710122259152	643.9430956360866	319.6188031277074	-156.66829003318878	448.28375654618856	34.051252052322496	-60.8577955211075	212.87987117443038	30.700444247823082
545	2.72	-132.35907542982912	643.7974192637321	319.61827091534	-156.63314627102494	448.15567994639764	34.05253524130181	-60.787523272910384	212.75347668009124	30.648215973744943
546	2.725	-132.34666832159894	643.6516353340654	319.6180198540358	-156.598072658862	448.02821911093463	34.053012273926036	-60.717656769081046	212.62755552051516	30.595443523846605
547	2.73	-132.3338098345978	643.5057982819279	319.618040566728	-156.56313597270358	447.9014929473705	34.0525966760194	-60.648287832364375	212.50224299615496	30.542090401545753
548	2.735	-132.32051883049408	643.3599627214767	319.6183241699398	-156.52839976122726	447.7756155324	34.051207590712984	-60.57950177266314	212.37766985600467	30.48812269822895
549	2.74	-132.3068140665321	643.2141834068078	319.6188623021419	-156.49392426788435	447.65069589410325	34.0487700296379	-60.511377353899164	212.253961978546	30.433509324916024
